<?xml version="1.0" standalone="no"?>
<!DOCTYPE svg PUBLIC "-//W3C//DTD SVG 20010904//EN"
 "http://www.w3.org/TR/2001/REC-SVG-20010904/DTD/svg10.dtd">
<svg version="1.0" xmlns="http://www.w3.org/2000/svg"
 width="500.000000pt" height="500.000000pt" viewBox="0 0 500.000000 500.000000"
 preserveAspectRatio="xMidYMid meet">

<g transform="translate(0.000000,500.000000) scale(0.100000,-0.100000)"
fill="#000000" stroke="none">
<path d="M1680 2545 l0 -755 815 0 815 0 0 755 0 755 -815 0 -815 0 0 -755z
m1210 97 c199 -332 360 -606 357 -608 -8 -8 -709 -186 -733 -186 -26 -1 -738
162 -755 173 -9 5 -10 11 -2 21 6 7 142 231 303 498 161 267 327 541 368 608
61 101 77 121 87 110 7 -7 175 -284 375 -616z"/>
<path d="M2441 3086 c-21 -33 -21 -41 -19 -607 l3 -574 21 -3 21 -3 2 611 c1
335 0 610 -3 610 -2 0 -14 -15 -25 -34z"/>
<path d="M2356 2948 c-15 -30 -17 -78 -14 -528 l3 -495 23 -3 22 -3 0 530 c0
292 -4 531 -8 531 -5 0 -17 -15 -26 -32z"/>
<path d="M2271 2806 c-21 -33 -21 -43 -19 -447 l3 -414 23 -3 22 -3 0 450 c0
248 -2 451 -4 451 -2 0 -14 -15 -25 -34z"/>
<path d="M2187 2668 c-15 -29 -17 -74 -19 -368 l-3 -335 23 -3 22 -3 0 370 c0
204 -1 371 -3 371 -1 0 -10 -15 -20 -32z"/>
<path d="M2101 2524 c-20 -33 -21 -49 -21 -290 l0 -254 25 0 25 0 0 290 c0
160 -2 290 -4 290 -2 0 -13 -16 -25 -36z"/>
<path d="M2011 2376 c-20 -32 -21 -46 -19 -203 3 -166 3 -168 26 -171 l22 -3
0 205 c0 113 -2 206 -4 206 -2 0 -14 -15 -25 -34z"/>
<path d="M1925 2232 c-16 -30 -19 -52 -17 -124 3 -83 4 -88 25 -88 22 0 22 2
19 107 -4 149 -4 149 -27 105z"/>
<path d="M1841 2096 c-27 -44 -26 -56 4 -56 23 0 25 4 25 45 0 25 -2 45 -4 45
-2 0 -14 -15 -25 -34z"/>
</g>
</svg>
